<svg xmlns="http://www.w3.org/2000/svg" viewBox="0 0 64 64" fill="none"><defs><linearGradient id="v4_membership_g" x1="14" y1="16" x2="49" y2="49"><stop stop-color="#FFF3A8"/><stop offset=".43" stop-color="#FFD564"/><stop offset="1" stop-color="#E8AB45"/></linearGradient><linearGradient id="v4_membership_rim" x1="15" y1="43" x2="49" y2="51"><stop stop-color="#FFE9A4"/><stop offset="1" stop-color="#F0B84F"/></linearGradient><linearGradient id="v4_membership_gem" x1="27" y1="30" x2="37" y2="42"><stop stop-color="#DEC4FF"/><stop offset=".52" stop-color="#A27CE8"/><stop offset="1" stop-color="#7857C9"/></linearGradient><filter id="v4_membership_s" x="-20%" y="-20%" width="150%" height="160%"><feDropShadow dx="0" dy="1.8" stdDeviation="1.6" flood-color="#896D3C" flood-opacity=".13"/></filter></defs><g transform="translate(32 32) scale(1.12) translate(-32 -32)"><ellipse cx="32" cy="52.5" rx="17" ry="3" fill="#8D6A31" opacity=".07"/><g filter="url(#v4_membership_s)"><path d="M12.5 23 22.2 31 32 15.5 41.8 31 51.5 23 48.2 44H15.8L12.5 23Z" fill="url(#v4_membership_g)"/><rect x="15.4" y="42" width="33.2" height="8" rx="4" fill="url(#v4_membership_rim)"/><path d="M17.5 26c3.2 2.9 6 4.9 8.6 6.1M32 18.8l6.1 10.1" stroke="#FFF7C8" stroke-width="2" stroke-linecap="round" opacity=".8"/></g><path d="m32 30.4 5 5-5 6.5-5-6.5 5-5Z" fill="url(#v4_membership_gem)"/><path d="m32 32 2 3.3-2 2.6-2-2.6 2-3.3Z" fill="#EDE4FF" opacity=".85"/><circle cx="18.5" cy="20" r="2" fill="#FFF4B5"/><circle cx="47" cy="18.7" r="1.5" fill="#E8DEFF"/></g></svg>
